Coordinates
version=1
nRows=8
nColumns=36
inDegrees=yes

Units are S.I. units (second, meters, Newtons, ...)
If the header above contains a line with 'inDegrees', this indicates whether rotational values are in degrees (yes) or radians (no).

endheader
time	pelvis_tilt	pelvis_list	pelvis_rotation	pelvis_tx	pelvis_ty	pelvis_tz	hip_flexion_r	hip_adduction_r	hip_rotation_r	knee_angle_r	knee_angle_r_beta	ankle_angle_r	subtalar_angle_r	mtp_angle_r	hip_flexion_l	hip_adduction_l	hip_rotation_l	knee_angle_l	knee_angle_l_beta	ankle_angle_l	subtalar_angle_l	mtp_angle_l	lumbar_extension	lumbar_bending	lumbar_rotation	arm_flex_r	arm_add_r	arm_rot_r	elbow_flex_r	pro_sup_r	arm_flex_l	arm_add_l	arm_rot_l	elbow_flex_l	pro_sup_l
      0.00000000	     -0.51103226	     -0.44897284	     15.22671990	     -0.14962747	      1.25792125	      0.35811097	     -2.00820130	      1.39492622	     -2.61665661	      1.09989229	      0.01919674	      3.51451782	     -2.69317466	     -6.73989365	      5.19019870	     -1.39044519	      2.17438014	     13.10592909	      0.22874161	      4.07116275	     -6.50094400	     -6.73989365	     -4.57930282	      0.51200637	     -0.73687176	      0.35544954	    -10.19614897	      1.11116857	     22.44475011	     86.22613420	      6.22011098	     -9.94544204	     13.63787285	     20.80415986	     86.45219182
      0.01666670	      0.20689199	     -0.90416091	     14.82657671	     -0.14769930	      1.25443712	      0.35705427	     -2.71452463	      2.09055374	     -1.19818274	      1.07804585	      0.01881545	      4.75469808	     -3.27616328	     -6.79591921	      3.73058134	     -1.94896733	      3.34668524	     11.53966282	      0.20140511	      4.87762825	     -7.40721475	     -6.79591921	     -4.87151259	      1.10391690	      0.15631487	      0.73294272	    -10.75478013	      2.57846756	     21.43957534	     87.36552350	      6.50475246	     -9.21364916	     13.29014246	     19.66504576	     87.00616410
      0.03333330	      0.69645911	     -0.93804786	     14.77380454	     -0.14882296	      1.25300713	      0.35686710	     -3.25876146	      2.35510675	      0.06118450	      0.96023927	      0.01675934	      5.14570067	     -3.89034008	     -7.04158992	      2.75994125	     -2.10250862	      3.82636428	     10.32453586	      0.18019714	      5.08809817	     -7.59270929	     -7.04158992	     -5.37625838	      1.31551303	      0.25418676	      1.34918835	    -11.33119138	      5.08290451	     21.08110645	     90.33945028	      6.94009861	     -9.25911245	     13.93414273	     19.17362769	     89.90749520
      0.05000000	      0.84204969	     -1.05170659	     15.12493484	     -0.14870861	      1.25622070	      0.35634370	     -3.47710807	      2.53910691	     -0.12929764	      0.90076264	      0.01572127	      5.54684828	     -3.67713933	     -7.34775311	      2.57823215	     -2.24919311	      3.96542333	      9.74549199	      0.17009092	      5.56699951	     -7.19979228	     -7.34775311	     -5.33639826	      1.52157968	     -0.08853209	      1.86049409	    -10.99905117	      3.15313299	     20.21462970	     95.50480901	      7.18704119	     -8.83003884	     10.71239682	     18.57688162	     96.16143386
      0.06666670	      1.05241796	     -1.11782133	     15.37456958	     -0.14253121	      1.25631009	      0.35262908	     -3.71558575	      2.70083590	     -0.02783968	      0.99493373	      0.01736487	      5.90140440	     -3.85560958	     -7.34841550	      2.19419520	     -2.32110858	      3.93509015	      9.51874087	      0.16613337	      5.88980328	     -7.25452891	     -7.34841550	     -5.24960746	      1.66769457	     -0.16595973	      1.70551395	    -10.92999954	      3.22088310	     20.03897380	     95.54215470	      7.17257865	     -8.72625666	     10.74598883	     18.41848386	     96.19966401
      0.08333330	      1.58125505	     -0.98804690	     15.33580649	     -0.14197961	      1.25162266	      0.35282604	     -4.23398299	      2.73043537	      0.35655724	      1.25209293	      0.02185314	      6.10581212	     -4.19347506	     -7.36440283	      1.53226113	     -2.29800677	      3.53620517	      9.71454394	      0.16955078	      6.52007419	     -6.80023913	     -7.36440283	     -5.51903537	      1.63860460	      0.06632957	      2.06047155	    -10.95592827	      4.71827408	     18.74619932	     96.20721498	      8.01049344	     -8.48407717	     11.59267836	     16.46229039	     97.71491177
      0.10000000	      1.52668569	     -1.08868559	     15.28789261	     -0.14288129	      1.25155216	      0.35283538	     -4.05572685	      2.81032452	      0.51755694	      1.57444154	      0.02747919	      6.32474191	     -4.31561213	     -7.40954327	      1.64139217	     -2.36926453	      3.16293552	     10.09085679	      0.17611868	      7.11978277	     -6.43215367	     -7.40954327	     -5.17915457	      1.74786709	      0.11338112	      2.19378998	    -10.95788334	      6.30318121	     18.30441780	     93.79185741	      8.13777424	     -8.38622343	     12.76683963	     15.48626138	     95.78608996
      0.11666670	      1.44564913	     -1.18563035	     15.22789656	     -0.14180117	      1.25215768	      0.35279957	     -3.85480502	      2.88977286	      0.69737238	      1.87759868	      0.03277028	      6.41503316	     -4.38753900	     -7.42990703	      1.81725659	     -2.40776782	      2.62655156	     10.41443191	      0.18176613	      7.19153254	     -6.23153845	     -7.42990703	     -4.80307701	      1.83743325	      0.18498232	      2.27081459	    -10.92867224	      7.49862695	     18.10426176	     92.72155041	      7.76856662	     -8.43253608	     13.73976255	     14.98873403	     95.23588433
